<?xml version="1.0" standalone="no"?>
<!DOCTYPE svg PUBLIC "-//W3C//DTD SVG 20010904//EN"
 "http://www.w3.org/TR/2001/REC-SVG-20010904/DTD/svg10.dtd">
<svg version="1.0" xmlns="http://www.w3.org/2000/svg"
 width="690.000000pt" height="690.000000pt" viewBox="0 0 690.000000 690.000000"
 preserveAspectRatio="xMidYMid meet">
<metadata>
Created by potrace 1.11, written by Peter Selinger 2001-2013
</metadata>
<g transform="translate(0.000000,690.000000) scale(0.100000,-0.100000)"
fill="#000000" stroke="none">
<path d="M5784 5354 c-21 -15 -177 -125 -345 -245 -168 -121 -309 -219 -314
-219 -4 0 -44 26 -88 59 -356 255 -747 391 -1172 408 -817 32 -1588 -415
-1945 -1127 -99 -198 -157 -377 -194 -600 -18 -104 -68 -267 -171 -550 -158
-435 -365 -864 -581 -1206 -79 -125 -84 -163 -30 -221 31 -34 39 -37 98 -41
35 -2 119 1 185 7 67 6 245 16 396 22 431 16 1091 -15 1269 -60 174 -45 282
-56 543 -56 282 0 397 13 624 71 533 136 870 431 1026 897 52 155 68 273 62
452 -10 271 -87 494 -258 745 -186 273 -497 523 -775 623 -152 54 -263 72
-464 72 -205 0 -294 -13 -453 -67 -298 -99 -549 -308 -653 -544 -53 -120 -69
-199 -68 -344 1 -159 27 -274 93 -414 173 -370 439 -564 796 -583 131 -7 224
6 352 49 427 141 616 532 431 890 -93 179 -300 309 -493 308 -33 -1 -70 -6
-83 -14 -59 -32 -80 -120 -42 -181 23 -37 52 -51 125 -61 126 -17 223 -82 272
-182 24 -50 28 -69 28 -147 0 -75 -4 -98 -25 -140 -72 -147 -265 -252 -485
-262 -285 -13 -483 114 -628 402 -62 124 -82 205 -82 335 0 140 22 214 96 325
149 223 432 360 766 372 217 8 375 -23 538 -104 261 -131 530 -407 649 -664
122 -264 141 -535 56 -789 -33 -98 -126 -272 -185 -342 -226 -274 -624 -430
-1141 -445 -519 -16 -880 103 -1156 377 -181 182 -289 405 -357 745 -61 303
-51 628 26 895 83 289 215 516 423 733 268 279 582 451 970 532 156 32 415 44
566 26 383 -48 714 -193 1026 -451 67 -55 102 -79 111 -73 8 4 200 141 426
303 259 185 418 305 427 322 44 85 -22 188 -119 188 -20 0 -50 -11 -73 -26z
m-4005 -2634 c88 -341 232 -601 429 -776 l47 -42 -285 -6 c-157 -4 -371 -6
-476 -4 l-191 3 221 472 c121 259 222 471 223 469 1 -1 16 -54 32 -116z"/>
</g>
</svg>
